<svg xmlns="http://www.w3.org/2000/svg" viewBox="0 0 500 250" width="500" height="250">
  <style>
    .wire { fill: none; stroke: #222; stroke-width: 2; }
    .comp { fill: none; stroke: #222; stroke-width: 2; }
    .lbl { font: 16px 'Times New Roman', serif; fill: #222; }
    .pol { font: 14px 'Times New Roman', serif; fill: #d33; }
  </style>
  <rect x="20" y="20" width="460" height="210" fill="#fff" stroke="#bbb" stroke-width="1" rx="6"/>
  <line class="wire" x1="80" y1="80" x2="80" y2="180" />
  <line class="comp" x1="65" y1="120" x2="95" y2="120" stroke-width="3"/>
  <line class="comp" x1="72" y1="135" x2="88" y2="135" stroke-width="2"/>
  <text x="55" y="90" class="pol">+</text>
  <text x="55" y="175" class="pol">−</text>
  <text x="50" y="135" class="lbl">V</text>
  <line class="wire" x1="80" y1="80" x2="160" y2="80" />
  <text x="100" y="70" class="lbl">i(t)</text>
  <polygon points="115,75 125,80 115,85" fill="#222"/>
  <line class="wire" x1="160" y1="80" x2="200" y2="80" />
  <line class="comp" x1="200" y1="80" x2="230" y2="65" />
  <circle cx="200" cy="80" r="3" fill="#222"/>
  <circle cx="240" cy="80" r="3" fill="#222"/>
  <text x="200" y="55" class="lbl">S</text>
  <text x="195" y="105" class="lbl">t = 0</text>
  <line class="wire" x1="240" y1="80" x2="290" y2="80" />
  <polyline class="comp" points="290,80 295,70 305,90 315,70 325,90 335,70 345,90 350,80" />
  <text x="310" y="60" class="lbl">R</text>
  <line class="wire" x1="350" y1="80" x2="420" y2="80" />
  <line class="wire" x1="420" y1="80" x2="420" y2="100" />
  <path class="comp" d="M 420,100 Q 410,108 420,116 Q 410,124 420,132 Q 410,140 420,148 Q 410,156 420,164" />
  <line class="wire" x1="420" y1="164" x2="420" y2="180" />
  <text x="430" y="135" class="lbl">L</text>
  <text x="445" y="105" class="pol">+</text>
  <text x="445" y="175" class="pol">−</text>
  <text x="445" y="140" class="lbl">v_L</text>
  <line class="wire" x1="80" y1="180" x2="420" y2="180" />
</svg>